<svg width="436" height="316" xmlns="http://www.w3.org/2000/svg" xmlns:xlink="http://www.w3.org/1999/xlink"><defs><linearGradient x1="50.084%" y1="43.385%" x2="49.722%" y2="56.113%" id="d"><stop stop-color="#425E70" offset="0%"/><stop stop-color="#214257" offset="100%"/></linearGradient><linearGradient x1="50%" y1="0%" x2="50%" y2="125.742%" id="y"><stop stop-color="#FDC300" offset="0%"/><stop stop-color="#F49C00" offset="100%"/></linearGradient><linearGradient x1="-.016%" y1="50.016%" x2="100.024%" y2="50.016%" id="A"><stop stop-color="#F2D3D6" offset="45.44%"/><stop stop-color="#EDB4B4" offset="91.41%"/></linearGradient><linearGradient x1="-.022%" y1="50.035%" x2="99.965%" y2="50.035%" id="B"><stop stop-color="#F2D3D6" offset="45.44%"/><stop stop-color="#EDB4B4" offset="91.41%"/></linearGradient><linearGradient x1="0%" y1="50%" x2="100%" y2="50%" id="C"><stop stop-color="#FF493B" offset="17.03%"/><stop stop-color="#D10046" offset="100%"/></linearGradient><linearGradient x1="43.648%" y1="-1.24%" x2="55.673%" y2="101.687%" id="D"><stop stop-color="#FF493B" offset="17.03%"/><stop stop-color="#D10046" offset="100%"/></linearGradient><linearGradient x1="50%" y1="100%" x2="50%" y2="0%" id="E"><stop stop-color="#F2D3D6" offset="45.44%"/><stop stop-color="#EDB4B4" offset="91.41%"/></linearGradient><linearGradient x1="49.229%" y1="14.021%" x2="51.328%" y2="117.893%" id="F"><stop stop-color="#FF493B" offset="17.03%"/><stop stop-color="#D10046" offset="76.45%"/></linearGradient><linearGradient x1="71.24%" y1="-6.28%" x2="25.419%" y2="100.165%" id="G"><stop stop-color="#F2D3D6" offset="45.44%"/><stop stop-color="#EDB4B4" offset="91.41%"/></linearGradient><linearGradient x1="59.786%" y1="94.398%" x2="46.707%" y2="23.136%" id="H"><stop stop-color="#F2D3D6" offset="45.44%"/><stop stop-color="#EDB4B4" offset="91.41%"/></linearGradient><linearGradient x1="50%" y1="0%" x2="50%" y2="100%" id="I"><stop stop-color="#F2D3D6" offset="45.44%"/><stop stop-color="#EDB4B4" offset="91.41%"/></linearGradient><linearGradient x1="49.986%" y1="99.994%" x2="49.986%" y2="-.004%" id="J"><stop stop-color="#0596DE" offset="46.15%"/><stop stop-color="#04A1DE" offset="66.58%"/><stop stop-color="#03BDDF" offset="100%"/></linearGradient><linearGradient x1="49.982%" y1="-.039%" x2="49.982%" y2="100.003%" id="K"><stop stop-color="#365F75" offset="20.15%"/><stop stop-color="#224358" offset="100%"/></linearGradient><linearGradient x1="48.673%" y1="38.081%" x2="50.33%" y2="88.789%" id="L"><stop stop-color="#FFF" offset="0%"/><stop stop-color="#E6F6FC" offset="90.9%"/></linearGradient><linearGradient x1="50.163%" y1="30.775%" x2="50.015%" y2="84.546%" id="M"><stop stop-color="#FFF" offset="0%"/><stop stop-color="#E6F6FC" offset="100%"/></linearGradient><path id="a" d="M.289.28h72.484v89.9H.289z"/><path d="M0 1.684s.839 22.972 1.677 23.305c.839.333 49.315 2.83 82.023.333 0 0 2.684-16.98 2.012-23.805 0 0-22.062-1.284-46.9-1.284C25.702.233 11.82.591 0 1.683" id="c"/><path id="f" d="M.015.14h74.307v58.575H.015z"/><path id="h" d="M0 .012h141.398v39.791H0z"/><path id="j" d="M.117.018h365.006v65.994H.117z"/><path d="M94.01.045c-6.765 1.116-35.75 5.765-42.56 4.68-7.726-1.228-37.44 0-37.44 0S5.094 48.36 3.906 52.048C2.717 55.734.142 65.362.142 65.362s19.611 1.936 30.705 1.07c11.093-.865 46.354-5.167 54.872-2.709 0 0 1.387 0 1.387-7.99 0-7.988 2.971-33.185 5.348-40.56C94.217 9.706 95 3.901 95.286 1.263A1.11 1.11 0 0094.192.03c-.06 0-.12.005-.182.015" id="l"/><path d="M94.01.045c-6.765 1.116-35.75 5.765-42.56 4.68-7.726-1.228-37.44 0-37.44 0S5.094 48.36 3.906 52.048C2.717 55.734.142 65.362.142 65.362s19.611 1.936 30.705 1.07c11.093-.865 46.354-5.167 54.872-2.709 0 0 1.387 0 1.387-7.99 0-7.988 2.971-33.185 5.348-40.56C94.217 9.706 95 3.901 95.286 1.263A1.11 1.11 0 0094.192.03c-.06 0-.12.005-.182.015" id="n"/><path d="M94.01.045c-6.765 1.116-35.75 5.765-42.56 4.68-7.726-1.228-37.44 0-37.44 0S5.094 48.36 3.906 52.048C2.717 55.734.142 65.362.142 65.362s19.611 1.936 30.705 1.07c11.093-.865 46.354-5.167 54.872-2.709 0 0 1.387 0 1.387-7.99 0-7.988 2.971-33.185 5.348-40.56C94.217 9.706 95 3.901 95.286 1.263A1.11 1.11 0 0094.192.03c-.06 0-.12.005-.182.015" id="p"/><path d="M94.01.045c-6.765 1.116-35.75 5.765-42.56 4.68-7.726-1.228-37.44 0-37.44 0S5.094 48.36 3.906 52.048C2.717 55.734.142 65.362.142 65.362s19.611 1.936 30.705 1.07c11.093-.865 46.354-5.167 54.872-2.709 0 0 1.387 0 1.387-7.99 0-7.988 2.971-33.185 5.348-40.56C94.217 9.706 95 3.901 95.286 1.263A1.11 1.11 0 0094.192.03c-.06 0-.12.005-.182.015" id="r"/><path d="M94.01.045c-6.765 1.116-35.75 5.765-42.56 4.68-7.726-1.228-37.44 0-37.44 0S5.094 48.36 3.906 52.048C2.717 55.734.142 65.362.142 65.362s19.611 1.936 30.705 1.07c11.093-.865 46.354-5.167 54.872-2.709 0 0 1.387 0 1.387-7.99 0-7.988 2.971-33.185 5.348-40.56C94.217 9.706 95 3.901 95.286 1.263A1.11 1.11 0 0094.192.03c-.06 0-.12.005-.182.015" id="t"/><path d="M94.01.045c-6.765 1.116-35.75 5.765-42.56 4.68-7.726-1.228-37.44 0-37.44 0S5.094 48.36 3.906 52.048C2.717 55.734.142 65.362.142 65.362s19.611 1.936 30.705 1.07c11.093-.865 46.354-5.167 54.872-2.709 0 0 1.387 0 1.387-7.99 0-7.988 2.971-33.185 5.348-40.56C94.217 9.706 95 3.901 95.286 1.263A1.11 1.11 0 0094.192.03c-.06 0-.12.005-.182.015" id="v"/><path d="M55.896.027c-5.943 0-49.92 1.843-49.92 1.843L.033 51.65s12.332 11.172 26.548 10.682c21.598-.744 40.606-4.537 56.058-7.61 0 0-7.132-19.666-7.726-27.655-.466-6.258-.202-17.796.506-23.684.214-1.785-1.167-3.356-2.951-3.356H55.896z" id="x"/></defs><g fill="none" fill-rule="evenodd"><path d="M46.225 164.56s-5.368-25.635-5.703-31.628c-.335-5.993-1.174-20.475-1.174-24.637 0-4.161.503-7.824.503-7.824s4.026 5.494 4.864 9.489c.839 3.995 2.013 11.985 2.013 11.985l-.168 14.65.839 16.812-1.174 11.153zm-22.477 19.643s-10.4-8.156-13.418-13.816c-3.02-5.66-3.188-6.493-3.858-14.483-.28-3.322.167-3.329.167-3.329s3.858 10.487 6.877 14.815c3.02 4.329 12.245 10.155 15.935 12.485 3.69 2.33 6.542 3.829 6.877 4.328.336.5-12.58 0-12.58 0" fill="#16895A"/><path d="M18.045 120.28s8.051 16.98 10.903 19.477c0 0-2.516-19.476 3.355-26.8 0 0-.671 13.15 2.348 21.14 3.02 7.99 8.387 22.473 10.568 28.632l1.341 2.83s-2.851-21.973-2.18-29.797c.67-7.824 3.522-13.484 3.857-16.646.336-3.163 1.51-4.828 1.51-4.828s1.342 6.492 1.51 17.645c.168 11.154 1.342 22.14 2.348 24.304 1.007 2.164 1.342 3.496 1.342 3.496s13.922-18.478 19.793-20.808c5.87-2.33 10.232-4.328 10.232-4.328s-10.903 18.81-13.251 21.307c-2.349 2.497-14.09 18.81-14.09 18.81s-3.69 5.66-7.213 5.161c-3.522-.5-7.212-4.161-9.225-6.659-2.013-2.497-4.697-10.487-6.542-12.65-1.845-2.165-13.754-25.636-15.264-27.967-1.51-2.33-1.342-12.318-1.342-12.318" fill="#1BAF6F"/><g transform="translate(12.199 94.023)"><mask id="b" fill="#fff"><use xlink:href="#a"/></mask><path d="M24.969 90.18s-3.355-10.986-8.052-17.978C12.221 65.211 6.182 48.897 4.84 44.57 3.498 40.241-.024 29.587.311 24.26.647 18.934 2.492-.21 2.66.29c.168.499 1.51 6.159 1.845 9.322 0 0 1.174 8.822 1.174 14.149s7.213 20.642 9.56 24.637c2.35 3.995 11.24 21.64 13.587 25.47 2.349 3.828 5.368 5.16 6.542 6.99 1.174 1.832 1.174-8.49 5.2-12.817 4.026-4.328 8.89-10.987 10.4-15.814 1.51-4.828 4.025-10.321 5.032-16.147 1.006-5.827 3.354-8.324 4.528-9.822 0 0 1.174 7.657 0 12.818-1.174 5.16-4.193 20.642-4.193 20.642S70.76 44.736 72.773 40.574c0 0-1.51 6.825-5.87 12.818-4.362 5.993-8.22 14.482-10.4 20.641-2.181 6.16-5.032 14.316-6.71 16.148H24.97z" fill="#16895A" mask="url(#b)"/></g><g transform="translate(0 181.49)"><mask id="e" fill="#fff"><use xlink:href="#c"/></mask><path d="M0 1.684s.839 22.972 1.677 23.305c.839.333 49.315 2.83 82.023.333 0 0 2.684-16.98 2.012-23.805 0 0-22.062-1.284-46.9-1.284C25.702.233 11.82.591 0 1.683" fill="url(#d)" mask="url(#e)"/></g><g transform="translate(5.184 206.005)"><mask id="g" fill="#fff"><use xlink:href="#f"/></mask><path d="M.015.14l13.755 56.6s30.863 4.66 46.295-.333L74.322 1.139.015.141z" fill="#224358" mask="url(#g)"/></g><g><path d="M68.777 222.167h343.966a1.858 1.858 0 001.846-1.86v-42.372c0-1.023-.83-1.86-1.846-1.86H68.777a1.858 1.858 0 00-1.846 1.86v42.372c0 1.023.831 1.86 1.846 1.86" fill="#2197C2"/><g transform="translate(293.922 248.006)"><mask id="i" fill="#fff"><use xlink:href="#h"/></mask><path d="M141.398 11.39V37.2s0 1.844-5.874 2.459c-5.873.614-119.079-.93-119.079-.93s-2.349 1.844-6.46-2.458L0 27.052V.012L141.398 11.39z" fill="#2197C2" mask="url(#i)"/></g><path d="M61.583 179.188s-7.132.615-10.103 1.844-10.697 8.603-10.697 8.603S39 191.48 39 200.083v70.059s0 4.916 3.566 6.146h23.771s1.783 0 2.972-4.302l9.624-61.217-2.493-22.977-14.857-8.604z" fill="#2197C2"/><path d="M306.429 277.476H72.874s-2.971 0-3.565-3.072v-20.895s1.485-1.844 4.605-3.073H306.43v27.04z" fill="#2197C2"/><g transform="translate(70.38 202.437)"><mask id="k" fill="#fff"><use xlink:href="#j"/></mask><path d="M334.934 16.754l28.243 13.564s1.13-.714 1.695 9.28c.565 9.995 0 22.845 0 22.845s-.565 1.427-4.519 3.569l-122.43-.93-15.25-12.136H.117V28.674L6.33 10.113S36.833 2.26 67.9 3.688c31.068 1.427 39.54 9.28 39.54 9.28s28.244-8.566 61.006-9.28c32.762-.714 42.93 9.28 42.93 9.28S243.007-1.309 277.463.118c34.457 1.428 45.754 7.14 45.754 7.14s.565 4.283 5.649 5.71c5.084 1.428 6.067 3.786 6.067 3.786" fill="#04BCDF" mask="url(#k)"/></g><path d="M426.181 178.176l-23.977-12.04-11.548 14.496-13.472 15.612s.642 21.188 5.774 26.764c3.79 4.116 28.21 7.625 40.732 9.18 3.989.495 7.383-4.896 7.383-11.724v-30.98c0-5.243-1.994-9.853-4.892-11.308" fill="#2197C2"/><path d="M161.754 149.45s.385 16.63 3.356 23.39c2.972 6.76 8.32 20.28 10.103 25.197 1.783 4.916 2.972 8.604 2.972 8.604s-13.669 3.687-25.555 2.458c-11.885-1.23-30.506-3.687-30.506-3.687L90.87 172.328s-.657-11.249-1.846-14.322c0 0-3.54-5.07 3.508-6.324 9.414-1.674 75.759-8.992 69.222-2.232" fill="#078CD6"/><path d="M263.64 147.191s-36.251 6.146-43.977 4.916c-7.726-1.229-37.44 0-37.44 0s-8.914 43.634-10.103 47.321c-1.188 3.687-3.764 13.315-3.764 13.315s19.612 1.936 30.705 1.07c11.094-.865 46.355-5.167 54.873-2.709 0 0 1.386 0 1.386-7.989s2.972-33.186 5.349-40.56c2.377-7.375 2.971-15.364 2.971-15.364" fill="#FFF"/><path d="M415.778 166.242l1.727-6.25c.34-1.235-.503-2.48-1.768-2.608-5.878-.594-20.782-1.953-25.514-.975-5.942 1.23-53.485 1.844-54.674 3.688-1.188 1.843-13.669 41.175-13.669 41.175s1.783 9.218 14.263 10.447c12.48 1.23 52.756-3.02 52.756-3.02l26.879-42.457z" fill="#365F75"/><g><g transform="translate(168.214 147.382)"><mask id="m" fill="#fff"><use xlink:href="#l"/></mask><path d="M85.796-5.81s-.153.356-.42 1.032" stroke="#26475B" stroke-width="4" mask="url(#m)"/></g><g transform="translate(168.214 147.382)"><mask id="o" fill="#fff"><use xlink:href="#n"/></mask><path d="M84.568-2.65c-2.181 5.943-6.638 19.669-8.072 35.97-1.71 19.464-2.154 28.962-5.615 34.091" stroke="#26475B" stroke-dasharray="2,2" mask="url(#o)"/></g><g transform="translate(168.214 147.382)"><mask id="q" fill="#fff"><use xlink:href="#p"/></mask><path d="M46.88-.336c-2.843 5.032-8.33 16.413-9.505 31.003-1.439 17.846-7.52 36.76-11.304 43.579" stroke="#26475B" stroke-dasharray="2,2" mask="url(#q)"/><path d="M48.598-3.158s-.222.322-.603.935" stroke="#26475B" stroke-width="4" mask="url(#q)"/></g><g transform="translate(168.214 147.382)"><mask id="s" fill="#fff"><use xlink:href="#r"/></mask><path d="M89.23 28.1c-6.584-1.174-22.14-3.63-39.76-2.41-18.514 1.282-38.14-.045-48.237-4.27" stroke="#26475B" stroke-dasharray="2,2" mask="url(#s)"/></g><g transform="translate(168.214 147.382)"><mask id="u" fill="#fff"><use xlink:href="#t"/></mask><path d="M.206 20.964a21.485 21.485 0 01-.991-.497" stroke="#26475B" stroke-dasharray="2,2" mask="url(#u)"/></g><g transform="translate(168.214 147.382)"><mask id="w" fill="#fff"><use xlink:href="#v"/></mask><path d="M80.595 61.94c-8.023-1.65-30.141-5.46-59.254-4.413-27.062.973-38.41-1.625-42.533-3.077m105.064 8.217s-.368-.093-1.078-.254" stroke="#26475B" stroke-dasharray="2,2" mask="url(#w)"/></g></g><g transform="translate(249.25 159.285)"><mask id="z" fill="#fff"><use xlink:href="#x"/></mask><path d="M55.896.027c-5.943 0-49.92 1.843-49.92 1.843L.033 51.65s12.332 11.172 26.548 10.682c21.598-.744 40.606-4.537 56.058-7.61 0 0-7.132-19.666-7.726-27.655-.466-6.258-.202-17.796.506-23.684.214-1.785-1.167-3.356-2.951-3.356H55.896z" fill="url(#y)" mask="url(#z)"/></g><g fill="#365F75"><path d="M134.086 213.006s-5.349-13.082-14.263-24.202c-7.424-9.26-15.673-20.337-19.253-25.67-.988-1.471-2.69-2.183-4.348-1.82-4.349.95-12.713 2.635-17.405 2.635-6.537 0-22.598.607-24.365 1.308-2.161.857 10.697 25.51 14.857 33.359s14.263 22.893 21.394 26.163c0 0 11.886-1.308 19.611-5.887 7.726-4.578 21.395-7.195 23.772-5.886"/></g></g><g><g fill-rule="nonzero" transform="translate(116 38)"><path d="M85.041 252.233c0 .842.07 8.449.899 12.831.81 4.382 5.532 8.747 7.47 9.202 1.956.456 5.391-1.262 6.853-3.663 1.71-2.822.07-9.974 0-10.377-.493-2.734-5.814-17.809-5.814-17.809l-1.673-.7c0 .017-7.735.017-7.735 10.516z" fill="#225364"/><path d="M85.729 264.52c.81 4.383 5.532 8.747 7.47 9.203 1.039.245 2.501-.14 3.858-.894-.07-.719-.212-1.42-.282-2.016-.247-1.805-8.633-9.202-8.932-9.535-.406-.456-1.78-1.578-2.379-1.683" fill="#000" opacity=".12"/><path d="M95.136 265.66c3.982 0 6.378-17.23 6.378-17.23.07-.35.106-.684.106-1-.053-5.696 8.315-14.513 8.315-18.51l-17.124-3.505s-1.18 5.504-1.462 14.917c-.458 2.085-2.185 4.329-2.185 4.329s-.969 7.31.687 13.462c2.15 8.08 5.285 7.537 5.285 7.537" fill="url(#A)"/><path d="M67.494 236.738c2.572 1.052 3.1 4.452 6.149 4.838l2.836 3.979c1.639-.333 7.065-3.278 8.562-3.821 1.392-6.52 13.707-40.719 14.976-49.535 1.779-12.358-35.536-25.644-35.536-25.644S42.618 156.65 17.76 154.6c-8.756-.718-8.844 17.651-3.224 28.94 5.62 11.288 53.311 14.496 53.311 14.496l-.352 38.702z" fill="#000" opacity=".12"/><path d="M96.44 271.883c-.246-1.806-8.633-9.203-8.932-9.536-2.044-2.296-7.452.789-7.452.789l-10.307-9.378c.388-.7.617-1.56-.194-2.016-1.532-.858-2.026 0-2.026 0-3.224 3.208-1.99 11.447-1.99 11.447l3.065 1.314-.07-.999c.898.193 4.95 7.94 8.262 11.604 3.295 3.663 16.49 2.874 18.587 2.19 2.079-.7 1.304-3.61 1.057-5.415z" fill="#225364"/><path d="M81.395 249.464c1.162-2.63 5.162-10.815 11.345-14.654l-22.25-2.103s-1.992 5.854-.74 16.424c-.477 1.437-1.71 4.855-1.71 4.855s3.048 7.73 8.44 12.323c5.373 4.61 14.164.227 14.164.227-5.497-2.471-8.932-15.547-9.25-17.072z" fill="url(#B)"/><path d="M26.62 77.808c5.92 3.804 7.224 15.075-1.99 26.065-9.214 10.99.317 18.335-3.524 20.088-3.84 1.752 1.78 8.659-9.602 8.133-12.262-.579-12.702-15.092-10.306-22.98 2.854-9.395 4.74-34.46 10.853-35.547 6.113-1.087 14.57 4.241 14.57 4.241z" fill="url(#C)"/><path d="M68.569 76.74c4.792-5.137 15.82 5.135 25.052 16.09s16.878 8.309 17.953 12.375c1.075 4.067-2.484-1.595-6.395 5.487-3.912 7.064 4.88 5.907 3.382 10.955-1.427 4.768-15.468 1.946-19.732-5.136-4.263-7.081-26.48-14.145-26.48-20.333 0-6.17 6.22-19.439 6.22-19.439z" fill="url(#D)"/><path d="M39.781 50.745s-1.78 14.846-4.792 16.441c-3.013 1.595-13.865 2.647-13.865 2.647l7.1 18.387s10.835 8.133 24.172 8.309c13.336.175 12.438-22.787 12.438-22.787s-3.911.526-7.823-3.891c-3.91-4.418-.704-9.01-.704-9.01L39.78 50.745z" fill="url(#E)"/><path d="M35.518 45.591s-10.13 1.84-12.262-5.521c-2.132-7.362 9.055-20.982 9.055-20.982l9.25 11.219-6.043 15.284z" fill="#BA884D"/><path d="M35.57 45.784c.141-.158-.017-.42-.229-.368a8.466 8.466 0 00-5.514 4.803c-1.18 2.664-.934 6.117-.564 8.413.036.263.423.246.44-.017.16-2.822 1.216-7.66 5.867-12.83z" fill="#BA884D"/><path d="M33.773 45.872s-2.43-.824-4.65 1.051c-1.357 1.14-2.115 3.085-2.52 4.435-.053.158.159.228.247.105.845-1.542 2.766-4.014 6.923-5.591zm39.024-11.674s2.431-.824 4.651 1.052c1.357 1.139 2.114 3.085 2.52 4.434.052.158-.16.228-.247.105-.828-1.542-2.766-3.996-6.924-5.591z" fill="#BA884D"/><path d="M31.765 25.784c.07.035.159-.052.106-.122a5.27 5.27 0 00-4-2.525c-2.889-.333-9.126.351-9.584 7.66 0 .106.141.123.177.035 1.69-6.31 7.24-7.87 13.301-5.048z" fill="#B28049"/><path d="M33.826 21.998s-3.876-1.297-7.382 1.665c-2.255 1.91-3.488 5.206-4.087 7.345-.053.193.23.315.317.122 2.167-4.785 4.299-6.503 11.152-9.132zm9.972-11.586s2.326-1.7 2.008-4.926c-.193-2.068-1.62-4.119-2.625-5.328-.088-.105-.281 0-.193.122 1.902 3.208 2.043 5.119.81 10.132z" fill="#B28049"/><path d="M34.39 25.083S29.3 35.495 33.368 43.33c1.093 2.104 4.281 11.183 6.572 13.97 5.972 7.24 11.91 7.608 17.23 7.608 4.44 0 12.755-3.629 14.922-11.85 3.56-13.444 2.026-23.926.529-31.288-1.462-7.397-37.72-15.74-38.23 3.313z" fill="#F2D3D6"/><path d="M36.222 40.736c-.88-1.385-4.351-5.627-6.589-2.717-1.814 2.349 4.95 12.06 7.84 8.308.74-.999.317-3.12-1.25-5.591z" fill="#F2D3D6"/><path d="M35.165 41.157s-3.153-3.068-3.576-1.718c-.44 1.367 2.537 6.59 3.242 6.03.687-.561 1.303-1.105.58-1.595-.721-.491-1.655-.965-.88-1.455.793-.474.74-.894.529-1.192m25.37-1.525s1.902 3.067 3.17 5.416c.864 1.578 2.115 2.436 1.234 3.681-.952 1.332-3.136 1-4.44.35-1.427-.7-.722-5.31.035-9.447z" fill="#E5AEB9"/><circle fill="#224358" cx="51.761" cy="39.667" r="1"/><circle fill="#224358" cx="66.208" cy="39.895" r="1"/><path d="M49.964 51.99a.495.495 0 01.846-.369c.88.894 2.167 2.174 3.964 2.962 3.63 1.578 4.616 1.087 4.757 1.946.123.859-3.277 2.892-6.466.806-2.466-1.612-3.03-3.75-3.1-5.346z" fill="#994251"/><path d="M50.898 55.144s1.198-.543 2.29-.298c1.093.246 1.55 1.262 1.55 1.262s.758-.28 1.622-.087c.863.192 1.074.841 1.462 2.015-.018 0-4.37 1.245-6.924-2.892z" fill="#E8798E"/><path d="M40.327 20.789C37.42 25.1 21.107 25.416 19.38 18.86 17.653 12.305 20.542 3.61 25.74.894c5.197-2.717 27.854.228 14.587 19.895z" fill="#B28049"/><path d="M34.971 39.439s-1.25-1.77-5.514-3.716c-5.567-2.542-.528-23.699 14.746-25.82 8.07-1.121 11.364-.42 18.658 2.823 6.747 2.997 13.142 5.135 10.658 14.145 0 0-.88-5.136-10.306-5.136-5.655 0-17.424-2.296-18.834 1.245-3.259 8.168-8.773 8.466-9.408 16.459z" fill="#BA884D"/><path d="M55.443 32.094c-4.968-.613-8.597 3.383-8.597 3.383s3.4-4.347 6.977-4.347c2.131 0 1.62.964 1.62.964zm8.686 2.384c3.189-2.19 6.571-.876 6.571-.876s-3.382-1.578-5.866-.35c-1.78.876-.705 1.226-.705 1.226z" fill="#B28049"/><path d="M33.685 37.809c-.123-.158.124-.403.282-.298.934.63 2.837 2.313 3.136 5.802.23 2.804-.88 6.047-1.797 8.185-.106.246-.405.14-.352-.122.634-2.752 2.942-7.765-1.269-13.567z" fill="#BA884D"/><path d="M66.79 21.753s2.66-.877 4.968 1.069c10.2 8.589 6.536 23.628 6.536 23.628s1.04-22.103-11.505-24.697z" fill="#B28049"/><path d="M32.329 147.431c-8.034 3.523-6.871 21.42 1.092 31.218 7.963 9.799 61.821 8.887 61.821 8.887l-5.003 41.612s12.262 7.257 21.511 1.07c0 0 14.27-38.02 12.262-47.73-2.484-12.025-32.03-24.627-43.357-28.817-11.434-4.242-29.863-14.338-48.326-6.24z" fill="#181F30"/><path d="M20.243 149.464c-8.756-.718-11.399 19.404-5.779 30.71 5.62 11.306 55.69 14.847 55.69 14.847l-2.66 41.717s11.381 8.133 25.229-.876c0 0 8.368-38.983 9.778-48.8 1.78-12.357-35.535-25.626-35.535-25.626s-21.864-9.903-46.723-11.972z" fill="#1F2738"/><path d="M27.537 69.027s9.39 23.628 24.682 22.226c17.671-1.63 11.047-17.599 11.047-17.599s7.787.438 10.993 2.034c3.26 1.63 2.66 29.342 0 35.722-2.554 6.118-4.792 7.783-6.043 12.55-2.308 8.87-1.515 18.265 1.956 21.823 2.678 2.752 2.678 5.224 2.678 5.224s-15.275.35-23.996 2.12c-12.12 2.455-27.554 12.253-32.17 18.914-9.425 13.62-12.456-10.955-9.25-22.454 2.732-9.833 11.558-13.269 8.528-35.18-3.03-21.91-5.162-42.085 0-43.312 5.144-1.244 11.575-2.068 11.575-2.068z" fill="url(#F)"/><path d="M103.734 121.104c6.906 4.312 22.11-20.912 28.382-31.85 6.272-10.937-2.378-10.341-6.765-6.397-4.387 3.926-37.949 28.063-21.617 38.247z" fill="url(#G)"/><path d="M11.54 51.235c-4.88 0 1.709 14.707 1.198 14.233-4.422-4.066-3.242-10.674-5.11-10.85-3.364-.298-.916 9.01 1.71 12.533 2.572 3.453 5.584 11.604 5.584 11.604.705 1.42 1.727 6.696 1.727 6.696l7.487 1.35c1.533-5.417 3.753-10.5.934-17.16-3.382-8.029-.934-16.723-3.488-17.406-2.431-.649-1.885 12.252-2.185 11.06-1.392-5.627-.599-13.094-3.1-13.094-2.555 0 0 13.55 0 13.55-4.757-6.749-2.537-12.516-4.757-12.516z" fill="#F2D3D6"/><path d="M133.667 86.573c5.532-1 7.593-8.572 7.593-8.572l-13.777-5.539-5.973 3.892s2.185 12.042 12.157 10.219z" fill="url(#H)"/><path d="M133.843 78.387L119.8 80.175c-.634.087-1.057-.386-.933-1.052l4.616-27.31c.105-.665.722-1.261 1.339-1.349l14.041-1.788c.634-.087 1.057.386.934 1.052l-4.616 27.31c-.088.665-.705 1.261-1.34 1.349z" fill="#325D75"/><path d="M134.565 78.913L120.524 80.7c-.634.087-1.057-.386-.934-1.052l4.616-27.31c.106-.665.722-1.261 1.339-1.349l14.041-1.788c.635-.087 1.057.386.934 1.052l-4.616 27.31c-.105.665-.704 1.261-1.339 1.349z" fill="#224358"/><path d="M141.278 78.001c.775-2.296-.335-3.102-.335-3.102s1.163-1.105.793-2.121c-.37-1.017-.705-1.28-.705-1.28s.652-.42.88-1.542c.177-.912-.774-1.858-.774-1.858s1.022-1.315.07-2.261c-1.321-1.298-7.24-1.999-7.523-.526-.352 1.823 2.062 2.103 2.062 2.103s-2.273-.07-2.749 1.367c-.475 1.42 1.92 1.893 1.92 1.893s-2.536.263-2.642 1.77c-.106 1.49 1.656 1.28 1.656 1.28s-2.449.842-1.938 2.086c.511 1.245 2.872.947 2.872.947s.934.035 2.871.946c1.375.631 2.626 2.963 3.542.298zM17.97 85.468s-5.356-2.086-7.452-8.308c-2.097-6.223-8.686-3.856-5.796-7.45 1.427-1.77 5.003.298 7.84 1.192 2.836.894 5.214-2.857 6.483.421 1.268 3.278-1.075 14.145-1.075 14.145z" fill="#F2D3D6"/><path d="M14.182 129.605c8.122.754 10.254-28.589 10.906-41.174.652-12.586-6.818-8.169-8.95-2.682-2.132 5.486-21.141 42.085-1.956 43.856z" fill="url(#I)"/></g></g><g fill="#FFF"><path d="M294.113 42.956c-2.6-29.627 17.657-53.964 60.081-37.786 31.23 11.908 43.525-6.098 62.85 23.51 15.432 23.642-4.625 59.126-4.625 76.725 0 17.6 22.713 54.661-7.172 91.516-26.778 33.023-82.881 25.467-104.996-.828-13.898-16.525-18.927-40.374-8.965-78.472 7.654-29.273 4.623-54.204 2.827-74.665"/><path d="M308.6 73.578s.072 5.39-9.538-1.035C287.357 64.716 267 77.95 267 77.95s5.259-25.247 27.651-25.247c10.883 0 13.949 20.875 13.949 20.875"/></g><g><g transform="translate(305 29)"><path d="M.072 137.425v9.616c0 8.06 11.852 8.682 11.852 8.682h63.85c10.515 0 9.865-12.417 9.865-12.417V11.207C85.639.692 75.087.07 75.087.07h-64.5C-1.265.07.072 9.374.072 9.374v128.051z" fill="#224358" fill-rule="nonzero"/><path d="M.361.346h73.353v125.215H.361z" transform="translate(6.866 11.069)" fill="url(#J)" fill-rule="nonzero"/><ellipse fill="#225364" fill-rule="nonzero" cx="42.855" cy="145.796" rx="3.939" ry="3.736"/><g transform="translate(6.866 18.333)"><g fill-rule="nonzero"><path d="M57.975 116.568H14.294c-7.687 0-13.933-4.766-13.933-10.534V57.995c0-5.836 7.724-11.328 15.152-14.367 10.015-4.144 31.117-5.146 42.462-.069 8.13 3.66 13.933 8.669 13.933 14.505v48.04c0 5.698-6.246 10.464-13.933 10.464z" fill="#0596DE"/><path fill="#AF755B" d="M74.076 87.166l-.223 31.373L0 118.643V87.166z"/></g><path fill="#E6F6FC" fill-rule="nonzero" d="M31.191 36.213l14.192-.24.508 2.016-16.26.752z"/><path fill="#FFD9D9" fill-rule="nonzero" d="M44.117 33.46l.328 4.828-4.882 6.333-8.126-4.584.474-7.523z"/><path d="M20.49 94.215c1.704.448 3.446.863 5.151 1.104 10.122 1.623 21.731 1.174 30.729-3.832L45.92 37.392h-1.669v1c-.544 1.002-2.176 3.004-6.058 3.004-4.354 0-6.53-2.244-6.53-2.244v-1.795c-1.923.242-2.395.138-3.012.483l-.98 10.599-7.437 45.603c.037.104.182.173.254.173z" fill="url(#K)" fill-rule="nonzero"/><path d="M51.059 3.534s1.697 3.606 1.697 11.616c0 7.524-1.914 14.91-4.262 16.713-4.407 3.363-18.892 1.976-20.987 0-2.095-1.977-3.757-6.415-4.804-10.888 0 0-1.3-9.951-.253-12.933 1.048-2.982 5.346-6.137 5.346-6.137l14.268-.867c-.036 0 7.947.52 8.995 2.496z" fill="#FFD9D9" fill-rule="nonzero"/><g fill-rule="nonzero"><path d="M21.68 16.223c1.844-.554 3.108 2.905 3.108 2.905l-1.337 3.701s-.867.796-2.168-1.245c-1.337-2.075-.94-5.015.398-5.361z" fill="#FFD9D9"/><path d="M23.451 18.61s-.47-2.041-1.373-1.626c-.867.45-.795 4.15.145 4.15.47 0 .47-.45.397-1.66-.036-1.21.362-1.21.831-.865z" fill="#F2BBBB"/></g><g fill-rule="nonzero"><path d="M53.334 16.223c-1.842-.554-3.107 2.905-3.107 2.905l1.3 3.736s.868.795 2.169-1.245c1.409-2.11.94-5.05-.362-5.396z" fill="#FFD9D9"/><path d="M51.564 18.61s.47-2.041 1.373-1.626c.867.45.795 4.15-.145 4.15-.47 0-.47-.45-.397-1.66.072-1.21-.398-1.21-.831-.865z" fill="#F2BBBB"/></g><path d="M25.698 15.508c.462-1.148 3.623-2.44 4.902-2.691.178-.072.391.071.462.323.071.394-.142.717-.533.897-.852.466-2.842 1.542-3.8 2.44-.25.179-.64.179-.853-.072-.178-.287-.285-.61-.178-.897zm24.51 0c-.464-1.148-3.64-2.44-4.924-2.691-.178-.072-.392.071-.464.323-.071.394.143.717.535.897.857.466 2.855 1.542 3.818 2.44.25.179.642.179.856-.072.107-.287.25-.61.179-.897z" fill="#224358" fill-rule="nonzero"/><circle fill="#224358" fill-rule="nonzero" cx="30.172" cy="17.468" r="1"/><circle fill="#224358" fill-rule="nonzero" cx="45.349" cy="17.122" r="1"/><path d="M38.025 13.144s1.818 5.895 3.065 9.8c.57 1.954-1.354 1.989-2.745 1.954-2.602-.279-1.176-9.452-.32-11.754z" fill="#F2BBBB" fill-rule="nonzero"/><path d="M35.412 27.775s0-.493.653-.493c.654 0 3.558.493 5.555-.317.872-.387 1.38-.493 1.38 0 0 1.022-.871 2.782-4.248 2.782-3.231-.07-3.34-1.972-3.34-1.972z" fill="#994251" fill-rule="nonzero"/><path d="M51.754 5.119C49.595-1.96 32.863-.051 28.76 1.267c-2.95.937-5.037 1.874-6.153 4.546-1.763 4.303-.468 10.375-.468 10.375.576-2.672-.072-11.624 6.621-9.23h.072c.54.173.972.312 1.512.451 3.526 1.006 12.522 3.123 20.187 1.25 1.26 2.983 2.015 7.598 2.015 7.598.612-2.498-.252-9.611-.792-11.138z" fill="#224358" fill-rule="nonzero"/><path d="M35.412 27.108s1.605.746 3.794.522c2.991-.26 3.247-.82 3.794-1.342l-7.588.82z" fill="#FFF" fill-rule="nonzero"/><g fill="#E8798E" fill-rule="nonzero"><path d="M35.303 27.741s0-.484.65-.484c.651 0 3.542.484 5.53-.312.867-.38 1.372-.484 1.372 0 0 1.004-.867 2.733-4.227 2.733-3.216-.07-3.325-1.937-3.325-1.937z"/><path d="M36.134 28.986s.723-.311 2.385-.311c1.663 0 2.096-.242 2.963-.242.253 0 .65.138.65.138s-1.047 1.245-3.107 1.418c-.83.035-2.42-.518-2.89-1.003z"/></g><path d="M44.923 100.656s2.306-1.25 2.774-1.423c0 0 0-4.965-4.648-7.916l-8.721 5.416 10.595 3.923z" fill="#FAC5C5" fill-rule="nonzero"/><path d="M25.294 96.576l4.213-5.323s2.412 1.106 2.772 1.002c0 0 1.368.173 2.232-.242.864-.45 1.764-1.106 3.024-1.037 1.26.07 1.26.38 1.692.38.433 0 .72-.069 1.26.173s2.089.38 2.629.38 1.188 0 1.368.76c.252.761.396 1.107.648 1.349s1.188 1.037 1.116 1.313c-.072.277-.396.76-.792.76 0 0 .576 1.003.468 1.625-.144.622-.18 1.798-.54 2.109 0 0-.576.449-.864.553 0 0-.396 1.486-.972 1.728-.648.242-.864.242-.864.242s-.144.864-.864 1.175c-.792.311-1.44-.173-1.44-.173s-.324 1.003-1.045 1.106c-.72.07-2.016-.622-2.016-.622s-5.112-3.041-5.328-3.456c-.072-.519-6.697-3.802-6.697-3.802z" fill="#FFD9D9" fill-rule="nonzero"/><path d="M28.03 100.184s-.964-.866-.928-1.11c.036-.242.714-2.355.714-2.355s.25-.14.393 0c0 0 1.893-2.184 2.393-2.357 0 0 .465-.138.572.243l.964-.867s1.036.139.929 1.352c0 0 .536-.139.571.45.143.485-.536 1.872-1.428 2.807 0 0 .142 1.802.071 2.183 0 0 1.75 1.11 1.822 1.179.142.069 3.714 1.94 3.464 2.183-.25.242-1.428.797-1.821.866-.393.07-.965-.139-.965-.139s-2.464 1.005-2.929.867c-.464-.139-.928-1.49.143-2.287 0 0-2.464-1.248-2.679-1.352-.178-.104-1.643.07-1.286-1.663z" fill="#FAC5C5" fill-rule="nonzero"/><g fill-rule="nonzero"><path d="M73.714 45.278c-1.373-18.782-7.624-35.973-9.07-37.08C61.105 5.604 47.482 2.006 45.639.45c0 0 1.807 28.675 2.746 51.054-2.566 1.072-4.806 2.076-6.07 2.629-.398.173-.398.692 0 .796 3.938 1.556 5.058 6.191 5.347 8.197.073.554.578 1.038 1.12.865 7.119-2.352 12.142-4.358 15.647-5.984 2.854-.865 8.383-3.251 9.033-5.603.326-1.522.326-5.88.253-7.126z" fill="url(#L)" transform="translate(0 35.973)"/><path d="M31.076 54.825c-.434-.242-.904-.554-1.446-.83C29.992 22.968 31.003.31 31.003.31 27.968 2.352 8.42 9.166 8.492 12.037c0 0-8.42 26.288-8.167 40.436v.069c-.542 6.434 14.599 9.132 25.403 10.03.542.07.975-.552 1.048-1.106 0-.104.036-.207.036-.277l2.71.658c0-1.626.036-3.217.036-4.808a14.495 14.495 0 011.807-.83c.433-.139.433-.934-.29-1.384z" fill="url(#M)" transform="translate(0 35.973)"/></g><path d="M44.084 35.282s6.235 2.565 8.206 3.224a.652.652 0 01.43.866l-3.619 10.539 4.515 4.922a.89.89 0 01.215.728L48.17 82.324l-4.085-47.042zm-12.286.345s-5.524 2.8-7.497 3.491a.705.705 0 00-.43.865l3.874 10.403-4.412 5.012a.766.766 0 00-.18.726l6.314 26.546 2.331-47.043z" fill="#E6F6FC" fill-rule="nonzero"/><ellipse fill="#E62638" cx="36.676" cy="106.537" rx="9.214" ry="8.647"/><path d="M33.656 106.092c-.219 0-.292.2-.292.468.11.835.11 1.47-.22 1.47l-2.265.468c-.293.1-.731-.368-.804-.835-1.353-4.812 14.29-4.712 12.828.2-.11.368-.511.835-.913.735l-2.157-.568c-.292-.1-.402-.635-.219-1.47 0-.2-.11-.368-.292-.368-1.426-.534-4.094-.534-5.666-.1z" fill="#FFF" fill-rule="nonzero"/></g></g></g></g></svg>